<?xml version="1.0" encoding="iso-8859-1"?>
<!-- Uploaded to: SVG Repo, www.svgrepo.com, Generator: SVG Repo Mixer Tools -->
<svg height="800px" width="800px" version="1.1" id="Layer_1" xmlns="http://www.w3.org/2000/svg" xmlns:xlink="http://www.w3.org/1999/xlink" 
	 viewBox="0 0 496.001 496.001" xml:space="preserve">
<path id="SVGCleanerId_0" style="fill:#84BF31;" d="M467.869,226.313c-56.752-56.224-113.504-112.424-170.208-168.656
	c-8.28-8.08-16.08-17.28-27.04-21.904c-10.848-5.112-23.464-5.848-35.128-3.384c-10.216,2.328-19.448,7.864-26.824,15.168
	c-63.8,63.208-127.608,126.432-191.44,189.616c-7.352,7.256-13.08,16.344-15.424,26.432c-5.248,18.152,1.328,38.504,14.768,51.592
	c44.984,44.568,90.008,89.088,134.984,133.688c10.032,10.152,24.2,16.072,38.576,15.888c36.808,0.216,73.576-0.032,110.36,0.12
	c16.544,1.056,33.296-4.816,45.016-16.56c40.752-40.256,81.392-80.656,122.144-120.936c6.64-6.672,13.832-12.904,19.24-20.648
	c9.912-14.168,11.568-33.248,5.776-49.288C488.141,244.553,477.261,235.665,467.869,226.313z M149.285,298.089
	c-6.936,8.168-19.128,6.008-28.496,4.56c-8.256-6.544-15.832-14.16-22.496-22.272c-3.848-4.504,1.096-9.176,4.16-12.352
	c41.968-41.4,83.792-82.976,125.68-124.424c5.616-5.44,10.736-11.48,17.056-16.12c5.448-2.712,9.64,3.128,13.256,6.224
	c7.72,8.136,16.44,15.352,23.504,24.056c3.632,4.32-0.36,9.32-3.552,12.416C235.317,212.769,192.205,255.361,149.285,298.089z
	 M281.357,396.169c-6.696,7.464-13.696,14.776-21.536,21.016c-7.216,1.72-14.904,1.32-22.208,0.288
	c-7.008-3.528-11.76-10.28-17.504-15.488c-4.104-3.944-10.496-9.88-5.24-15.568c8.904-9.808,18.416-19.136,28.264-28.04
	c3.656-3.072,9.136-1.544,12.096,1.768c8.416,8.072,16.704,16.264,24.824,24.64C283.221,387.601,284.989,392.937,281.357,396.169z
	 M278.845,284.457c-23.896,23.632-47.88,47.24-71.648,71.04c-6.664,8.112-18.432,5.544-27.552,4.792
	c-8.832-5.608-15.672-13.92-22.768-21.504c-4.72-4.424-0.288-10.224,3.336-13.56c23.944-23.608,47.848-47.224,71.648-70.96
	c4.328-4.176,8.256-9,13.512-12.184c5.272-2.24,9.128,3.072,12.608,6.056c7.96,8.44,17.024,15.872,24.28,24.904
	C285.469,277.073,281.757,281.593,278.845,284.457z"/>
<g>
	<path id="SVGCleanerId_0_1_" style="fill:#84BF31;" d="M467.869,226.313c-56.752-56.224-113.504-112.424-170.208-168.656
		c-8.28-8.08-16.08-17.28-27.04-21.904c-10.848-5.112-23.464-5.848-35.128-3.384c-10.216,2.328-19.448,7.864-26.824,15.168
		c-63.8,63.208-127.608,126.432-191.44,189.616c-7.352,7.256-13.08,16.344-15.424,26.432c-5.248,18.152,1.328,38.504,14.768,51.592
		c44.984,44.568,90.008,89.088,134.984,133.688c10.032,10.152,24.2,16.072,38.576,15.888c36.808,0.216,73.576-0.032,110.36,0.12
		c16.544,1.056,33.296-4.816,45.016-16.56c40.752-40.256,81.392-80.656,122.144-120.936c6.64-6.672,13.832-12.904,19.24-20.648
		c9.912-14.168,11.568-33.248,5.776-49.288C488.141,244.553,477.261,235.665,467.869,226.313z M149.285,298.089
		c-6.936,8.168-19.128,6.008-28.496,4.56c-8.256-6.544-15.832-14.16-22.496-22.272c-3.848-4.504,1.096-9.176,4.16-12.352
		c41.968-41.4,83.792-82.976,125.68-124.424c5.616-5.44,10.736-11.48,17.056-16.12c5.448-2.712,9.64,3.128,13.256,6.224
		c7.72,8.136,16.44,15.352,23.504,24.056c3.632,4.32-0.36,9.32-3.552,12.416C235.317,212.769,192.205,255.361,149.285,298.089z
		 M281.357,396.169c-6.696,7.464-13.696,14.776-21.536,21.016c-7.216,1.72-14.904,1.32-22.208,0.288
		c-7.008-3.528-11.76-10.28-17.504-15.488c-4.104-3.944-10.496-9.88-5.24-15.568c8.904-9.808,18.416-19.136,28.264-28.04
		c3.656-3.072,9.136-1.544,12.096,1.768c8.416,8.072,16.704,16.264,24.824,24.64C283.221,387.601,284.989,392.937,281.357,396.169z
		 M278.845,284.457c-23.896,23.632-47.88,47.24-71.648,71.04c-6.664,8.112-18.432,5.544-27.552,4.792
		c-8.832-5.608-15.672-13.92-22.768-21.504c-4.72-4.424-0.288-10.224,3.336-13.56c23.944-23.608,47.848-47.224,71.648-70.96
		c4.328-4.176,8.256-9,13.512-12.184c5.272-2.24,9.128,3.072,12.608,6.056c7.96,8.44,17.024,15.872,24.28,24.904
		C285.469,277.073,281.757,281.593,278.845,284.457z"/>
</g>
<path style="fill:#72AA11;" d="M220.109,438.153c5.744,5.208,10.496,11.96,17.504,15.48c7.304,1.04,14.992,1.44,22.208-0.272
	c7.84-6.232,14.84-13.552,21.536-21.024c3.632-3.232,1.864-8.56-1.312-11.368c-3.792-3.92-7.736-7.672-11.584-11.512
	c-2.816,2.664-5.624,5.336-8.64,7.736c-7.216,1.72-14.904,1.32-22.208,0.288c-3.88-1.952-7.064-4.912-10.12-8.04
	c-4.312,4.304-8.536,8.68-12.624,13.152C209.605,428.281,216.005,434.201,220.109,438.153z"/>
<path style="fill:#A1E03D;" d="M17.237,273.337c63.832-63.192,127.64-126.416,191.44-189.632c7.376-7.296,16.6-12.84,26.824-15.16
	c11.664-2.48,24.272-1.744,35.128,3.376c10.96,4.616,18.76,13.824,27.04,21.904c56.704,56.224,113.464,112.424,170.208,168.648
	c9.392,9.368,20.264,18.24,24.808,31.136c0.112,0.344,0.184,0.704,0.312,1.072c4.144-11.944,3.952-25.416-0.312-37.24
	c-4.536-12.88-15.416-21.776-24.808-31.128c-56.752-56.224-113.504-112.424-170.208-168.656c-8.28-8.08-16.08-17.28-27.04-21.904
	c-10.848-5.112-23.464-5.848-35.128-3.384c-10.216,2.328-19.448,7.864-26.824,15.168c-63.8,63.208-127.608,126.432-191.44,189.616
	c-7.352,7.256-13.08,16.344-15.424,26.432c-2.952,10.248-2.048,21.152,1.624,31.104C6.301,286.641,11.149,279.337,17.237,273.337z"
	/>
<g>
	<path style="fill:#72AA11;" d="M282.269,309.209c-4.168-5.208-8.936-9.864-13.76-14.496c-20.48,20.216-40.976,40.424-61.312,60.784
		c-6.664,8.112-18.432,5.544-27.552,4.792c-3.64-2.328-6.912-5.168-10.048-8.168c-3.144,3.096-6.248,6.184-9.384,9.28
		c-3.624,3.328-8.056,9.136-3.336,13.568c7.096,7.56,13.936,15.872,22.768,21.488c9.128,0.768,20.888,3.328,27.552-4.792
		c23.768-23.8,47.752-47.408,71.648-71.04C281.757,317.761,285.469,313.233,282.269,309.209z"/>
	<path style="fill:#72AA11;" d="M98.293,316.537c6.672,8.136,14.24,15.728,22.496,22.272c9.368,1.448,21.552,3.6,28.496-4.56
		c42.92-42.736,86.032-85.32,129.112-127.904c3.192-3.096,7.184-8.088,3.552-12.4c-4.088-5.024-8.704-9.552-13.368-14.04
		c-39.808,39.344-79.64,78.688-119.296,118.176c-6.936,8.168-19.128,6.008-28.496,4.56c-3.088-2.448-5.96-5.168-8.848-7.88
		c-3.16,3.144-6.328,6.28-9.496,9.424C99.389,307.361,94.445,312.049,98.293,316.537z"/>
</g>
</svg>